<?xml version="1.0" encoding="UTF-8"?>
<svg width="24px" height="24px" viewBox="0 0 24 24" version="1.1" xmlns="http://www.w3.org/2000/svg">
    <g stroke="none" stroke-width="1" fill="none" fill-rule="evenodd">
        <path d="M12,0 C18.6274,0 24,5.3726 24,12 C24,18.6274 18.6274,24 12,24 C5.3726,24 0,18.6274 0,12 C0,5.3726 5.3726,0 12,0 Z" fill="#FFFFFF"/>
        <path d="M13.4001,4.4285 C17.7271,4.4285 21.2351,7.9355 21.2351,12.2635 C21.2351,16.5905 17.7271,20.0975 13.4001,20.0975 C13.4001,20.0975 7.4841,20.0975 7.4841,20.0975 C7.0691,20.0975 6.7321,19.7605 6.7321,19.3455 C6.7321,18.9305 7.0691,18.5935 7.4841,18.5935 C7.4841,18.5935 13.4001,18.5935 13.4001,18.5935 C16.8971,18.5935 19.7311,15.7595 19.7311,12.2635 C19.7311,8.7665 16.8971,5.9325 13.4001,5.9325 C9.9031,5.9325 7.0691,8.7665 7.0691,12.2635 C7.0691,12.2635 7.0691,19.3455 7.0691,19.3455 C7.0691,19.7605 6.7321,20.0975 6.3171,20.0975 C5.9021,20.0975 5.5651,19.7605 5.5651,19.3455 C5.5651,19.3455 5.5651,12.2635 5.5651,12.2635 C5.5651,7.9355 9.0731,4.4285 13.4001,4.4285 Z M15.3191,10.6705 C15.6331,10.6705 15.8871,10.9245 15.8871,11.2385 C15.8871,11.5525 15.6331,11.8065 15.3191,11.8065 C15.3191,11.8065 11.4811,11.8065 11.4811,11.8065 C11.1671,11.8065 10.9131,11.5525 10.9131,11.2385 C10.9131,10.9245 11.1671,10.6705 11.4811,10.6705 C11.4811,10.6705 15.3191,10.6705 15.3191,10.6705 Z M13.4001,12.9425 C13.7141,12.9425 13.9681,13.1965 13.9681,13.5105 C13.9681,13.8245 13.7141,14.0785 13.4001,14.0785 C13.4001,14.0785 11.4811,14.0785 11.4811,14.0785 C11.1671,14.0785 10.9131,13.8245 10.9131,13.5105 C10.9131,13.1965 11.1671,12.9425 11.4811,12.9425 C11.4811,12.9425 13.4001,12.9425 13.4001,12.9425 Z" fill="#0068FF"/>
    </g>
</svg>